<svg width="40" height="40" viewBox="0 0 40 40" fill="none" xmlns="http://www.w3.org/2000/svg">
<path fill-rule="evenodd" clip-rule="evenodd" d="M1.14399 30.264C1.89065 30.9253 2.88265 31.256 4.11999 31.256C5.33599 31.256 6.31732 30.9253 7.06399 30.264C7.81065 29.6027 8.18399 28.7707 8.18399 27.768C8.18399 26.744 7.81065 25.9013 7.06399 25.24C6.31732 24.5573 5.33599 24.216 4.11999 24.216C2.88265 24.216 1.89065 24.5573 1.14399 25.24C0.39732 25.9013 0.0239868 26.744 0.0239868 27.768C0.0239868 28.7707 0.39732 29.6027 1.14399 30.264ZM22.0813 12.952L27.1707 0.440002H20.3867L5.34674 37.336H12.1627L19.6 19.0521V39.64H26.704V28.536C27.152 29.368 27.792 30.0293 28.624 30.52C29.4773 30.9893 30.4907 31.224 31.664 31.224C33.072 31.224 34.3413 30.8613 35.472 30.136C36.6027 29.3893 37.488 28.3227 38.128 26.936C38.7893 25.528 39.12 23.8747 39.12 21.976C39.12 20.0773 38.7893 18.4347 38.128 17.048C37.488 15.64 36.6027 14.5733 35.472 13.848C34.3413 13.1013 33.072 12.728 31.664 12.728C30.4907 12.728 29.4773 12.9733 28.624 13.464C27.792 13.9333 27.152 14.584 26.704 15.416V12.952H22.0813ZM22.0813 12.952H19.6V19.0521L22.0813 12.952ZM31.184 19.736C31.6747 20.2693 31.92 21.016 31.92 21.976C31.92 22.936 31.6747 23.6827 31.184 24.216C30.6933 24.7493 30.064 25.016 29.296 25.016C28.528 25.016 27.8987 24.7493 27.408 24.216C26.9173 23.6827 26.672 22.936 26.672 21.976C26.672 21.016 26.9173 20.2693 27.408 19.736C27.8987 19.2027 28.528 18.936 29.296 18.936C30.064 18.936 30.6933 19.2027 31.184 19.736Z" fill="url(#paint0_linear_1_19)"/>
<defs>
<linearGradient id="paint0_linear_1_19" x1="21.5" y1="4" x2="28.0271" y2="6.56211" gradientUnits="userSpaceOnUse">
<stop/>
<stop offset="1" stop-color="#FF1654"/>
</linearGradient>
</defs>
</svg>
