<svg width="200" height="40" viewBox="0 0 200 40" fill="none" xmlns="http://www.w3.org/2000/svg">
<path fill-rule="evenodd" clip-rule="evenodd" d="M4.11999 31.256C2.88265 31.256 1.89065 30.9253 1.14399 30.264C0.39732 29.6027 0.0239868 28.7707 0.0239868 27.768C0.0239868 26.744 0.39732 25.9013 1.14399 25.24C1.89065 24.5573 2.88265 24.216 4.11999 24.216C5.33599 24.216 6.31732 24.5573 7.06399 25.24C7.81065 25.9013 8.18399 26.744 8.18399 27.768C8.18399 28.7707 7.81065 29.6027 7.06399 30.264C6.31732 30.9253 5.33599 31.256 4.11999 31.256ZM27.1707 0.440002L22.0813 12.952H19.6V19.0521L12.1627 37.336H5.34674L20.3867 0.440002H27.1707ZM19.6 19.0521V39.64H26.704V28.536C27.152 29.368 27.792 30.0293 28.624 30.52C29.4773 30.9893 30.4907 31.224 31.664 31.224C33.072 31.224 34.3413 30.8613 35.472 30.136C36.6027 29.3893 37.488 28.3227 38.128 26.936C38.7893 25.528 39.12 23.8747 39.12 21.976C39.12 20.0773 38.7893 18.4347 38.128 17.048C37.488 15.64 36.6027 14.5733 35.472 13.848C34.3413 13.1013 33.072 12.728 31.664 12.728C30.4907 12.728 29.4773 12.9733 28.624 13.464C27.792 13.9333 27.152 14.584 26.704 15.416V12.952H22.0813L19.6 19.0521ZM31.92 21.976C31.92 21.016 31.6747 20.2693 31.184 19.736C30.6933 19.2027 30.064 18.936 29.296 18.936C28.528 18.936 27.8987 19.2027 27.408 19.736C26.9173 20.2693 26.672 21.016 26.672 21.976C26.672 22.936 26.9173 23.6827 27.408 24.216C27.8987 24.7493 28.528 25.016 29.296 25.016C30.064 25.016 30.6933 24.7493 31.184 24.216C31.6747 23.6827 31.92 22.936 31.92 21.976ZM48.454 16.28C49.1793 15.2347 50.0647 14.4027 51.11 13.784C52.1553 13.144 53.2433 12.824 54.374 12.824V20.408H52.358C51.014 20.408 50.022 20.6427 49.382 21.112C48.7633 21.5813 48.454 22.4133 48.454 23.608V31H41.35V12.952H48.454V16.28ZM64.8635 31.224C63.0502 31.224 61.4182 30.8507 59.9675 30.104C58.5168 29.3573 57.3755 28.2907 56.5435 26.904C55.7328 25.496 55.3275 23.8533 55.3275 21.976C55.3275 20.0987 55.7328 18.4667 56.5435 17.08C57.3755 15.672 58.5168 14.5947 59.9675 13.848C61.4182 13.1013 63.0502 12.728 64.8635 12.728C66.6768 12.728 68.3088 13.1013 69.7595 13.848C70.9149 14.4427 71.8672 15.2471 72.6167 16.2613L70.2214 29.849C70.0712 29.9378 69.9173 30.0228 69.7595 30.104C68.3088 30.8507 66.6768 31.224 64.8635 31.224ZM70.2214 29.849L69.776 32.376C69.6907 32.8027 69.5307 33.112 69.296 33.304C69.0613 33.496 68.7093 33.592 68.24 33.592H66.864L65.808 39.64H68.176C73.1253 39.64 76.0267 37.176 76.88 32.248L80.304 12.952H73.2L72.6167 16.2613C72.8082 16.5205 72.9865 16.7934 73.1515 17.08C73.9835 18.4667 74.3995 20.0987 74.3995 21.976C74.3995 23.8533 73.9835 25.496 73.1515 26.904C72.429 28.1399 71.4523 29.1215 70.2214 29.849ZM64.8635 25.08C65.5248 25.08 66.0795 24.824 66.5275 24.312C66.9755 23.7787 67.1995 23 67.1995 21.976C67.1995 20.952 66.9755 20.184 66.5275 19.672C66.0795 19.1387 65.5248 18.872 64.8635 18.872C64.2021 18.872 63.6475 19.1387 63.1995 19.672C62.7515 20.184 62.5275 20.952 62.5275 21.976C62.5275 23 62.7408 23.7787 63.1675 24.312C63.6155 24.824 64.1808 25.08 64.8635 25.08ZM74.352 10.712C74.992 11.2453 75.8667 11.512 76.976 11.512C77.872 11.512 78.6827 11.3307 79.408 10.968C80.1333 10.584 80.6987 10.0827 81.104 9.464C81.5093 8.84533 81.712 8.16267 81.712 7.416C81.712 6.54133 81.392 5.83733 80.752 5.304C80.1333 4.74933 79.28 4.472 78.192 4.472C77.296 4.472 76.4747 4.664 75.728 5.048C75.0027 5.41067 74.4373 5.912 74.032 6.552C73.6267 7.192 73.424 7.88533 73.424 8.632C73.424 9.48533 73.7333 10.1787 74.352 10.712ZM97.434 14.648C96.026 13.368 94.1273 12.728 91.738 12.728C89.946 12.728 88.282 13.1013 86.746 13.848C85.2313 14.5947 83.962 15.672 82.938 17.08C81.914 18.4667 81.2313 20.0987 80.89 21.976C80.762 22.68 80.698 23.3627 80.698 24.024C80.698 26.2853 81.3913 28.056 82.778 29.336C84.186 30.5947 86.0847 31.224 88.474 31.224C89.9673 31.224 91.386 30.936 92.73 30.36C94.0953 29.7627 95.2793 28.9627 96.282 27.96C97.2847 26.936 98.0207 25.784 98.49 24.504H90.97C90.522 25.208 89.9033 25.56 89.114 25.56C88.09 25.56 87.578 24.9627 87.578 23.768C87.578 23.5333 87.5887 23.352 87.61 23.224H99.002C99.0873 22.9893 99.2047 22.52 99.354 21.816C99.482 21.112 99.546 20.4507 99.546 19.832C99.546 17.6347 98.842 15.9067 97.434 14.648ZM92.442 19.832C92.442 20.0453 92.4313 20.2053 92.41 20.312H88.154C88.602 18.968 89.466 18.296 90.746 18.296C91.2367 18.296 91.642 18.424 91.962 18.68C92.282 18.936 92.442 19.32 92.442 19.832ZM109.441 24.056C109.441 23.928 109.451 23.8213 109.473 23.736L110.337 18.872H113.281L114.337 12.952H111.393L112.161 8.6H105.057L104.289 12.952H102.049L100.993 18.872H103.233L102.401 23.608C102.273 24.3333 102.209 25.016 102.209 25.656C102.209 29.2187 104.31 31 108.513 31H111.201L112.289 24.952H110.593C109.825 24.952 109.441 24.6533 109.441 24.056ZM126.034 13.464C125.117 13.9333 124.36 14.584 123.762 15.416L124.21 12.952H117.106L112.402 39.64H119.506L121.458 28.536C121.757 29.368 122.28 30.0293 123.026 30.52C123.794 30.9893 124.765 31.224 125.938 31.224C127.346 31.224 128.68 30.8613 129.938 30.136C131.197 29.3893 132.274 28.3227 133.17 26.936C134.066 25.528 134.685 23.8747 135.026 21.976C135.176 21.208 135.25 20.4187 135.25 19.608C135.25 17.4533 134.696 15.768 133.586 14.552C132.477 13.336 131.016 12.728 129.202 12.728C128.029 12.728 126.973 12.9733 126.034 13.464ZM127.89 21.208C127.89 21.528 127.869 21.784 127.826 21.976C127.656 22.936 127.272 23.6827 126.674 24.216C126.098 24.7493 125.426 25.016 124.658 25.016C123.997 25.016 123.474 24.824 123.09 24.44C122.706 24.0347 122.514 23.4693 122.514 22.744C122.514 22.424 122.536 22.168 122.578 21.976C122.749 21.016 123.122 20.2693 123.698 19.736C124.296 19.2027 124.978 18.936 125.746 18.936C126.408 18.936 126.93 19.1387 127.314 19.544C127.698 19.928 127.89 20.4827 127.89 21.208ZM138.152 17.048C137.256 18.4347 136.638 20.0773 136.296 21.976C136.147 22.744 136.072 23.5333 136.072 24.344C136.072 26.4987 136.627 28.184 137.736 29.4C138.846 30.616 140.307 31.224 142.12 31.224C143.294 31.224 144.35 30.9893 145.288 30.52C146.227 30.0293 146.995 29.368 147.592 28.536L147.144 31H154.216L157.416 12.952H150.344L149.896 15.416C149.598 14.584 149.064 13.9333 148.296 13.464C147.528 12.9733 146.558 12.728 145.384 12.728C143.976 12.728 142.643 13.1013 141.384 13.848C140.126 14.5733 139.048 15.64 138.152 17.048ZM148.808 21.208C148.808 21.528 148.787 21.784 148.744 21.976C148.574 22.936 148.19 23.6827 147.592 24.216C147.016 24.7493 146.344 25.016 145.576 25.016C144.915 25.016 144.392 24.824 144.008 24.44C143.624 24.0347 143.432 23.4693 143.432 22.744C143.432 22.424 143.454 22.168 143.496 21.976C143.667 21.016 144.04 20.2693 144.616 19.736C145.214 19.2027 145.896 18.936 146.664 18.936C147.326 18.936 147.848 19.1387 148.232 19.544C148.616 19.928 148.808 20.4827 148.808 21.208ZM160.094 17.08C159.07 18.4667 158.388 20.0987 158.046 21.976C157.918 22.68 157.854 23.3627 157.854 24.024C157.854 26.2853 158.548 28.056 159.934 29.336C161.342 30.5947 163.241 31.224 165.63 31.224C167.977 31.224 170.068 30.5627 171.902 29.24C173.758 27.9173 175.102 26.0827 175.934 23.736H168.414C167.988 24.6747 167.369 25.144 166.558 25.144C166.11 25.144 165.758 24.984 165.502 24.664C165.246 24.3227 165.118 23.8213 165.118 23.16C165.118 22.968 165.161 22.5733 165.246 21.976C165.438 20.9307 165.737 20.1413 166.142 19.608C166.569 19.0747 167.07 18.808 167.646 18.808C168.436 18.808 168.905 19.2773 169.054 20.216H176.574C176.553 17.8693 175.849 16.0347 174.462 14.712C173.097 13.3893 171.241 12.728 168.894 12.728C167.102 12.728 165.438 13.1013 163.902 13.848C162.388 14.5947 161.118 15.672 160.094 17.08ZM196.938 31L191.626 22.04L199.978 12.952H191.722L185.994 19.736L188.202 7.32H181.098L176.906 31H184.01L185.29 23.8L188.458 31H196.938Z" fill="url(#paint0_linear_1_8)"/>
<defs>
<linearGradient id="paint0_linear_1_8" x1="70" y1="22.5" x2="89.5" y2="30" gradientUnits="userSpaceOnUse">
<stop stop-color="white"/>
<stop offset="0.397354" stop-color="#FF1654"/>
</linearGradient>
</defs>
</svg>
